<?xml version="1.0" standalone="no"?><!DOCTYPE svg PUBLIC "-//W3C//DTD SVG 1.1//EN" "http://www.w3.org/Graphics/SVG/1.1/DTD/svg11.dtd"><svg t="1670939456150" class="icon" viewBox="0 0 1024 1024" version="1.1" xmlns="http://www.w3.org/2000/svg" p-id="8650" xmlns:xlink="http://www.w3.org/1999/xlink" width="200" height="200"><path d="M913.0496 922.5728H121.4976c-11.3152 0-20.48-9.1648-20.48-20.48s9.1648-20.48 20.48-20.48h791.552c11.3152 0 20.48 9.1648 20.48 20.48s-9.1648 20.48-20.48 20.48z" fill="#E2E5F1" p-id="8651"></path><path d="M510.8736 479.1296m-346.112 0a346.112 346.112 0 1 0 692.224 0 346.112 346.112 0 1 0-692.224 0Z" fill="#FFC5E7" p-id="8652"></path><path d="M649.216 161.8432c81.408 74.8544 132.4544 182.1696 132.4544 301.4656 0 152.5248-83.456 285.4912-207.1552 355.9424 160.7168-29.9008 282.4704-170.752 282.4704-340.1728 0-141.8752-85.504-263.8336-207.7696-317.2352z" fill="#FF99DD" p-id="8653"></path><path d="M239.2064 644.9664c-4.4544 0-8.7552-2.304-11.1104-6.4512-27.5968-48.4352-42.1888-103.68-42.1888-159.7952 0-123.8016 68.9664-234.8544 179.968-289.792 6.3488-3.1232 14.0288-0.5632 17.152 5.7856 3.1232 6.3488 0.5632 14.0288-5.7856 17.152C274.9952 262.4512 211.456 364.6976 211.456 478.72c0 51.6608 13.4144 102.5024 38.8608 147.0976a12.8 12.8 0 0 1-11.1104 19.1488zM453.376 186.112a12.83072 12.83072 0 0 1-2.304-25.4464 326.912 326.912 0 0 1 57.9072-5.1712 12.8 12.8 0 0 1 0 25.6c-17.92 0-35.8912 1.5872-53.3504 4.7616-0.7168 0.2048-1.4848 0.256-2.2528 0.256z" fill="#FFFFFF" p-id="8654"></path><path d="M314.624 194.0992C295.2704 162.7648 260.6592 141.824 221.1328 141.824c-60.7744 0-110.0288 49.2544-110.0288 110.0288 0 48.9472 31.9488 90.3168 76.1344 104.6528 25.088-66.2528 69.9392-122.7776 127.3856-162.4064zM802.0992 141.824c-39.8336 0-74.6496 21.248-93.952 52.992 57.088 39.68 101.632 96.0512 126.5664 162.1504 44.8512-13.8752 77.4144-55.7056 77.4144-105.1136 0-60.7744-49.2544-110.0288-110.0288-110.0288z" fill="#FAC573" p-id="8655"></path><path d="M781.0048 152.3712s129.4848 42.3936 54.016 178.944c6.5024 10.752 8.4992 18.6368 8.4992 18.6368s70.4-33.3824 68.1472-89.9072c-2.304-56.5248-42.1888-127.744-130.6624-107.6736zM179.1488 152.6784s56.2688 13.0048 67.0208 42.1376c-25.6 22.6304-70.656 93.2864-67.84 155.7504 26.5728-42.3936 149.5552-162.56 149.5552-162.56s-93.5936-46.3872-148.736-35.328z" fill="#EF981A" p-id="8656"></path><path d="M533.1968 467.6608V299.776c0-11.3152-9.1648-20.48-20.48-20.48s-20.48 9.1648-20.48 20.48v174.9504c0 4.5568 1.536 9.0112 4.3008 12.5952l84.3264 108.2368a20.5056 20.5056 0 0 0 16.1792 7.8848c4.4032 0 8.8064-1.4336 12.5952-4.3008a20.51072 20.51072 0 0 0 3.584-28.7232l-80.0256-102.7584z" fill="#211D38" p-id="8657"></path><path d="M932.608 251.8528c0-71.936-58.5216-130.5088-130.5088-130.5088-38.7584 0-74.496 16.8448-99.072 45.7728a364.38528 364.38528 0 0 0-192.1536-54.5792 364.3392 364.3392 0 0 0-191.232 53.9648c-24.576-28.5696-60.1088-45.1584-98.56-45.1584-71.936 0-130.5088 58.5216-130.5088 130.5088 0 49.664 27.8016 94.1056 70.9632 116.1216a364.32384 364.32384 0 0 0-17.3056 111.1552c0 122.8288 60.7744 231.68 153.8048 298.24l-68.352 92.2112c-6.7584 9.0624-4.8128 21.9136 4.2496 28.672a20.46976 20.46976 0 0 0 28.672-4.2496l70.0928-94.5664a364.07296 364.07296 0 0 0 178.1248 46.336c69.2736 0 134.0928-19.3024 189.44-52.8384 0.2048 0.3072 0.3072 0.6144 0.512 0.9216l74.24 100.1472a20.46464 20.46464 0 0 0 28.672 4.2496 20.45952 20.45952 0 0 0 4.2496-28.672l-74.0352-99.84c87.1424-67.072 143.4624-172.3392 143.4624-290.56 0-38.5024-5.9904-75.5712-17.0496-110.4896 43.9808-21.8112 72.2944-66.4576 72.2944-116.8384z m-801.024 0c0-49.3568 40.1408-89.5488 89.5488-89.5488 24.7808 0 47.872 10.0864 64.5632 27.5968-47.5648 37.0176-84.8896 84.5824-109.4144 139.4176a89.1392 89.1392 0 0 1-44.6976-77.4656z m379.2896 552.9088c-179.5584 0-325.632-146.0736-325.632-325.632s146.0736-325.632 325.632-325.632 325.632 146.0736 325.632 325.632-146.0736 325.632-325.632 325.632z m334.9504-474.6752c-24.3712-54.784-61.5424-102.4-108.9024-139.4688 16.7424-17.9712 40.0896-28.2624 65.2288-28.2624 49.3568 0 89.5488 40.192 89.5488 89.5488-0.0512 33.0752-17.8688 62.6176-45.8752 78.1824z" fill="#211D38" p-id="8658"></path><path d="M145.8176 256.3584a12.79488 12.79488 0 0 1-12.6464-14.7456c7.936-51.8656 46.08-66.816 47.7184-67.4304 6.5536-2.5088 13.9776 0.8192 16.4864 7.4752 2.5088 6.5536-0.8192 13.9264-7.3216 16.4352-1.28 0.512-26.0096 11.008-31.5392 47.4112a12.94336 12.94336 0 0 1-12.6976 10.8544zM764.3648 201.4208c-4.1472 0-8.2432-1.9968-10.7008-5.7344a12.7488 12.7488 0 0 1 3.6352-17.7152c19.8144-13.1072 37.9392-12.2368 39.936-12.0832 7.0656 0.512 12.3904 6.6048 11.8784 13.6704-0.512 7.0144-6.6048 12.288-13.568 11.8784-0.7168 0-11.7248-0.3072-24.1664 7.8848-2.1504 1.3824-4.608 2.0992-7.0144 2.0992z" fill="#FFFFFF" p-id="8659"></path><path d="M882.9952 828.2112c-28.416 0-51.5584-23.1424-51.5584-51.5584s23.1424-51.5584 51.5584-51.5584 51.5584 23.1424 51.5584 51.5584-23.1424 51.5584-51.5584 51.5584z m0-72.3456c-11.4688 0-20.8384 9.3184-20.8384 20.8384s9.3184 20.8384 20.8384 20.8384 20.8384-9.3184 20.8384-20.8384-9.3184-20.8384-20.8384-20.8384z" fill="#CBDCFF" p-id="8660"></path><path d="M392.2944 644.2496m-27.136 0a27.136 27.136 0 1 0 54.272 0 27.136 27.136 0 1 0-54.272 0Z" fill="#FFD9F1" p-id="8661"></path><path d="M710.0416 521.0112m-27.136 0a27.136 27.136 0 1 0 54.272 0 27.136 27.136 0 1 0-54.272 0Z" fill="#FFD9F1" p-id="8662"></path><path d="M281.4464 484.8128m-27.136 0a27.136 27.136 0 1 0 54.272 0 27.136 27.136 0 1 0-54.272 0Z" fill="#FFD9F1" p-id="8663"></path><path d="M416 348.0064m-27.136 0a27.136 27.136 0 1 0 54.272 0 27.136 27.136 0 1 0-54.272 0Z" fill="#FFD9F1" p-id="8664"></path><path d="M164.9664 753.9712m-27.136 0a27.136 27.136 0 1 0 54.272 0 27.136 27.136 0 1 0-54.272 0Z" fill="#F55369" p-id="8665"></path></svg>