<?xml version="1.0" standalone="no"?><!DOCTYPE svg PUBLIC "-//W3C//DTD SVG 1.1//EN" "http://www.w3.org/Graphics/SVG/1.1/DTD/svg11.dtd"><svg t="1666765768980" class="icon" viewBox="0 0 1024 1024" version="1.1" xmlns="http://www.w3.org/2000/svg" p-id="4331" xmlns:xlink="http://www.w3.org/1999/xlink" width="200" height="200"><path d="M221.810899 924.81058a284.630508 99.18942 0 1 0 569.261016 0 284.630508 99.18942 0 1 0-569.261016 0Z" fill="#FCD095" p-id="4332"></path><path d="M331.091763 868.746995s390.978817 310.506009 606.60799-276.005341c0 0 2.846305-71.84764-37.346973-48.904697z" fill="#FFA124" p-id="4333"></path><path d="M912.945524 539.438122a124.978669 124.978669 0 0 1 3.277564 31.740615C734.577072 1065.142046 428.55615 922.913044 336.525619 865.641935l-5.433856 3.10506s390.978817 310.506009 606.60799-276.005341c0 0 2.242543-55.80483-24.754229-53.303532z" fill="#F99319" p-id="4334"></path><path d="M432.69623 134.314032c-17.250334 35.535688-77.626502 209.160298-196.136296 328.791363s-59.599903 602.295406 309.902248 367.518363 14.059022-961.188602-113.765952-696.309726z" fill="#FFA515" p-id="4335"></path><path d="M469.439441 87.565627c133.517584 114.71472 253.752411 553.131955-17.940347 725.807797-61.842447 39.330761-114.973475 58.39238-159.996847 62.618712 58.651135 31.050601 142.401506 25.875501 254.873683-45.368378 338.279047-214.93916 69.173839-841.557537-76.936489-743.058131z" fill="#F99319" p-id="4336"></path><path d="M395.176754 404.45426a21.907924 21.907924 0 1 1-16.301566-15.266546 21.994176 21.994176 0 0 1 16.301566 15.266546zM571.302662 398.675398a21.907924 21.907924 0 1 1-16.301565-15.266545A21.994176 21.994176 0 0 1 571.302662 398.675398zM452.275359 482.167014a55.28732 55.28732 0 0 1-43.815848-53.131028v-8.625167a10.781459 10.781459 0 0 1 10.436452-11.126466l87.114186-2.846305a10.781459 10.781459 0 0 1 11.126465 10.436452v10.350201a54.424803 54.424803 0 0 1-64.861255 54.942313z" fill="#3E3A39" p-id="4337"></path><path d="M463.488076 448.528863a34.500668 34.500668 0 0 0-10.608956 1.983788 10.781459 10.781459 0 0 0 1.121272 20.786653 43.557093 43.557093 0 0 0 20.269142-0.690014 10.781459 10.781459 0 0 0 0-20.786652A34.500668 34.500668 0 0 0 463.488076 448.528863z" fill="#FFFFFF" p-id="4338"></path><path d="M879.997386 283.01191a17.250334 17.250334 0 1 0 1.638782-17.250334 17.250334 17.250334 0 0 0-1.638782 17.250334z m0 0M804.182169 258.775191l-14.749035 4.053828-4.053829-14.749035a7.503895 7.503895 0 0 0-14.404028 3.967576l4.053828 14.749036-13.97277 4.053828a7.503895 7.503895 0 1 0 3.967576 14.404029l14.749036-4.053828 4.053828 14.749035a7.503895 7.503895 0 0 0 14.404029-3.967577l-4.14008-14.835287 14.749035-4.053828a7.503895 7.503895 0 0 0 5.175101-9.228929A7.417644 7.417644 0 0 0 804.182169 258.775191zM960.815201 443.008756l-14.749036 4.053829-3.881325-14.749036a7.503895 7.503895 0 0 0-14.404029 3.967577l4.053829 14.749035-14.749036 4.053829a7.503895 7.503895 0 1 0 3.967577 14.404029l14.749035-4.053829 4.053829 14.749035a7.503895 7.503895 0 1 0 14.404029-3.967576l-4.053829-14.749036 14.749036-4.053828a7.503895 7.503895 0 1 0-3.967577-14.404029z" fill="#F7E42F" p-id="4339"></path><path d="M822.640026 433.262317a35.104429 35.104429 0 1 1 24.409223-43.125834 35.190681 35.190681 0 0 1-24.409223 43.125834z m-14.145273-51.060988a17.767844 17.767844 0 1 0 21.562917 12.420241 17.767844 17.767844 0 0 0-21.907924-12.420241z m0 0" fill="#F8B62D" p-id="4340"></path><path d="M185.326442 296.98468a17.250334 17.250334 0 1 0 5.865114-16.301565 17.250334 17.250334 0 0 0-5.865114 16.301565z m0 0M106.66492 421.53209H91.312123v-15.352797a7.503895 7.503895 0 0 0-14.921539 0v15.352797L61.124039 422.653362a7.503895 7.503895 0 1 0 0 14.921539h15.352797v15.352797a7.503895 7.503895 0 0 0 14.921539 0v-15.439049h15.352797A7.503895 7.503895 0 0 0 114.168815 428.777231a7.417644 7.417644 0 0 0-7.590147-7.245141zM125.554036 248.769997H110.201239v-15.352797a7.503895 7.503895 0 0 0-14.921539 0v15.352797l-15.611552 0.862517a7.503895 7.503895 0 1 0 0 14.921538h15.352797v15.352798a7.503895 7.503895 0 1 0 14.921539 0v-15.352798h15.352797a7.503895 7.503895 0 1 0 0-14.921538z" fill="#F7E42F" p-id="4341"></path><path d="M253.120254 218.668164a35.104429 35.104429 0 1 1 34.500668-35.794442 35.190681 35.190681 0 0 1-34.500668 35.794442zM252.171486 165.795891a17.767844 17.767844 0 1 0 18.112851 17.250334 17.767844 17.767844 0 0 0-18.112851-17.250334z m0 0" fill="#F8B62D" p-id="4342"></path><path d="M796.850777 122.670057a4.743842 4.743842 0 0 0-6.72763 0 4.830093 4.830093 0 0 0 0 6.72763l15.352797 15.352797a4.830093 4.830093 0 0 0 6.72763 0 4.743842 4.743842 0 0 0 0-6.72763z m40.452033 40.624536a4.830093 4.830093 0 0 0-6.72763 0 4.743842 4.743842 0 0 0 0 6.72763l15.352797 15.352797a4.743842 4.743842 0 0 0 6.72763-6.72763z m-3.363815-17.250334a4.830093 4.830093 0 0 0 3.363815-1.380027L852.655607 129.397687a4.830093 4.830093 0 0 0 0-6.72763 4.743842 4.743842 0 0 0-6.72763 0L830.661432 138.022854a4.743842 4.743842 0 0 0 0 6.72763 4.830093 4.830093 0 0 0 3.363815 1.380027z m-28.549302 17.250334l-15.266546 15.266545a4.743842 4.743842 0 0 0 6.72763 6.72763l15.352797-15.352797a4.743842 4.743842 0 0 0-6.72763-6.72763z m3.018808-9.228929a4.743842 4.743842 0 0 0-4.743842-4.743842h-21.562917a4.743842 4.743842 0 0 0 0 9.487684h21.562917a4.743842 4.743842 0 0 0 4.830094-4.743842z m52.441015-4.830093h-21.649169a4.743842 4.743842 0 0 0 0 9.487683h21.649169a4.743842 4.743842 0 0 0 0-9.487683zM821.432503 109.732306a4.743842 4.743842 0 0 0-4.743842 4.743842v21.649169a4.743842 4.743842 0 0 0 9.487684 0v-21.649169a4.743842 4.743842 0 0 0-4.743842-4.743842z m0 57.271109a4.743842 4.743842 0 0 0-4.743842 4.743841v21.649169a4.743842 4.743842 0 1 0 9.487684 0v-21.649169a4.65759 4.65759 0 0 0-4.743842-4.743841z m0 0" fill="#FAEE00" p-id="4343"></path><path d="M552.327295 176.491098c-65.378765-43.125835-70.985124-149.819149-70.985124-149.819149s100.22444-35.794443 165.603205 7.848902S717.9305 184.34 717.9305 184.34s-100.310691 35.708191-165.603205-7.848902z" fill="#FFFFFF" p-id="4344"></path><path d="M572.251431 150.529346c-52.69977-35.104429-57.271108-120.752337-57.271109-120.752337S595.884388 0.968951 648.929165 36.073381s57.271108 120.752337 57.271108 120.752337-81.249072 28.808058-133.948842-6.296372z" fill="#8ED420" p-id="4345"></path><path d="M705.769015 156.394459v0.51751s-80.817814 28.808058-133.517584-6.296372c-34.500668-23.115447-48.55969-68.311322-53.907294-96.343114 0.431258 6.555127 6.72763 86.251669 57.184857 120.321078C628.228764 209.611739 709.305333 181.148688 709.305333 181.148688a201.225144 201.225144 0 0 0-3.536318-24.754229z" fill="#86C617" p-id="4346"></path><path d="M545.427162 187.100053c-69.863852-46.575901-76.418979-155.253005-76.677734-159.824343a12.765247 12.765247 0 0 1 8.625166-12.678995c4.312583-1.55253 107.124573-37.346973 176.988426 9.228929s76.418979 155.253005 76.677734 159.824343a12.765247 12.765247 0 0 1-8.625167 12.678995c-4.485087 1.55253-107.297077 37.346973-176.988425-9.228929zM494.969935 35.728374c3.191312 25.875501 16.301565 98.068148 64.429997 130.067517s119.37231 16.474069 144.816553 9.31518c-3.191312-25.875501-16.301565-98.068148-64.343746-130.067517S520.414177 28.569485 494.969935 35.728374z" fill="#86C617" p-id="4347"></path><path d="M834.370253 526.155365c-29.498071 11.298969-162.670648 75.125204-290.840628 91.254266s-390.892565 275.229077-74.521442 292.651914S1054.31201 441.973736 834.370253 526.155365z" fill="#FFFFFF" p-id="4348"></path><path d="M829.02265 547.804534c-26.824269 10.263949-147.921613 68.311322-264.447618 83.060358S209.045652 880.994732 496.608717 897.037543s532.431554-425.996994 332.413933-349.233009z" fill="#FFAD36" p-id="4349"></path><path d="M742.512226 631.986163c-14.317777 5.865114-79.524039 36.743211-139.468949 50.715982S405.613206 804.058243 549.739745 789.567963s299.207041-201.225144 192.772481-157.5818z" fill="#FFB361" p-id="4350"></path><path d="M307.027548 433.521072a12.42024 12.42024 0 0 1 13.627764 20.096639 244.350979 244.350979 0 0 0-72.451403 164.999444 12.42024 12.42024 0 1 1-24.754229 0 269.277711 269.277711 0 0 1 79.524039-182.077274 12.333989 12.333989 0 0 1 4.053829-3.018809z" fill="#FFFFFF" p-id="4351"></path></svg>