<?xml version="1.0" standalone="no"?><!DOCTYPE svg PUBLIC "-//W3C//DTD SVG 1.1//EN" "http://www.w3.org/Graphics/SVG/1.1/DTD/svg11.dtd"><svg t="1670932992413" class="icon" viewBox="0 0 1024 1024" version="1.1" xmlns="http://www.w3.org/2000/svg" p-id="3182" xmlns:xlink="http://www.w3.org/1999/xlink" width="200" height="200"><path d="M781.2 473.2L663 999 332.2 523.4z" fill="#E27E7D" p-id="3183"></path><path d="M663 1001.8c-0.9 0-1.8-0.4-2.3-1.2L329.9 525c-0.6-0.8-0.7-1.9-0.3-2.8 0.4-0.9 1.3-1.5 2.3-1.6l449-50.2c0.9-0.1 1.8 0.2 2.4 0.9 0.6 0.7 0.8 1.6 0.6 2.5L665.8 999.6c-0.2 1.1-1.1 1.9-2.2 2.1-0.2 0.1-0.4 0.1-0.6 0.1zM337.2 525.7l324.5 466.4 115.9-515.7-440.4 49.3z" fill="#994153" p-id="3184"></path><path d="M472.2 599L677 912.1l-15 68.2-260.1-372.8z" fill="#DC5D53" p-id="3185"></path><path d="M814.8 334.1s61.1-14 73.1 51.1c0 0 14 72.1-70.1 74.1 0 0 33 70.1-39.1 108.1 0 0-61.1 27-89.1-16 0 0-15 89.1-101.1 85.1s-92.1-56.1-92.1-56.1-24 75.1-116.2 56.1c0 0-67.1-23-71.1-74.1 0 0-43.1 25-72.1-22-29-47.1-7-81.1 40.1-108.1" fill="#F3D0C4" p-id="3186"></path><path d="M408.6 642.3c-8.8 0-18.4-0.9-28.9-3.1-0.1 0-0.2-0.1-0.3-0.1-0.7-0.2-17.4-6-34.8-18.3-21.8-15.4-34.8-34-37.8-54.2-4.5 2-12.8 4.9-22.7 5.2-25.1 0.7-40.7-16-49.4-30-12.1-19.6-16.1-38.2-11.8-55.2 5.3-20.9 22.6-39.4 52.8-56.8 1.3-0.8 3.1-0.3 3.8 1 0.8 1.3 0.3 3.1-1 3.8-28.9 16.6-45.3 34-50.2 53.3-4 15.7-0.3 32.3 11.1 50.9 11.5 18.6 26.4 27.8 44.5 27.3 13.5-0.4 23.7-6.2 23.8-6.3 0.8-0.5 1.9-0.5 2.7-0.1 0.9 0.5 1.4 1.3 1.5 2.3 3.7 47.5 65.4 70.3 69 71.6 37.2 7.6 67.4 0.8 89.9-20.2 16.8-15.7 22.7-33.8 22.8-34 0.4-1.3 1.6-2.1 3-1.9 1.3 0.1 2.4 1.2 2.5 2.5 0 0.1 1.6 12.5 13.3 25.3 15.6 16.9 41.9 26.7 76.1 28.3 34.6 1.6 61.6-11.7 80.3-39.6 14.1-21 17.9-42.9 17.9-43.1 0.2-1.1 1.1-2.1 2.2-2.3 1.1-0.2 2.3 0.2 2.9 1.2 11 16.9 28.6 24.6 52.4 22.9 17.4-1.2 32-7.4 33.2-7.9 28.9-15.3 44-37.4 45-65.9 0.7-21.4-7.2-38.3-7.2-38.5-0.4-0.9-0.3-1.9 0.2-2.7 0.5-0.8 1.4-1.3 2.3-1.3 25.9-0.6 44.8-8.1 56.1-22.1 16.5-20.4 11.3-48.4 11.3-48.6-3.5-19-11.7-32.9-24.2-41.1-20.2-13.3-45.2-7.8-45.5-7.7-1.5 0.3-3-0.6-3.4-2.1-0.3-1.5 0.6-3 2.1-3.4 1.1-0.3 27.6-6.1 49.8 8.5 13.9 9.1 22.9 24.2 26.7 44.8 0.2 1.2 5.7 30.7-12.4 53.2-11.8 14.7-30.7 22.8-56.3 24.1 2.4 6.5 6.8 20.5 6.2 37.2-0.7 21.1-9.6 50.5-48.1 70.7-0.1 0-0.1 0.1-0.2 0.1-0.6 0.3-15.9 7-35 8.4-23.2 1.7-41.6-5.3-53.9-20.3-2.1 8.3-7.1 23.7-17.3 38.9-13.1 19.6-37.4 42.4-79.7 42.4-1.8 0-3.7 0-5.6-0.1-25.1-1.2-59.4-7.4-80.3-30.5-6.6-7.3-10.3-14.5-12.2-19.8-3.5 7.2-10.1 18.3-21 28.6-12.9 12.1-34.1 24.7-66.2 24.7z" fill="#9E4356" p-id="3187"></path><path d="M353 317.8L163.5 76.2s-8.2-12.9-8.4-24.3c-0.1-11.4 16.9-26.2 28.1-24.8 11.3 1.3 16 3.6 24.1 10l120.9 152.5L353 317.8z" fill="#FCF2F3" p-id="3188"></path><path d="M358 328.7l-196.9-251c-0.4-0.6-8.6-13.7-8.8-25.8-0.1-6 3.8-13.1 10.3-19 6.7-6.1 14.8-9.4 20.9-8.7 12.2 1.5 17.3 4.1 25.5 10.6l0.2 0.2 121.5 153.3L358 328.7zM165.8 74.6l182.3 232.2-22.5-116.1L205.3 39.1c-7.3-5.8-11.6-8-22.4-9.2-4.5-0.5-11 2.3-16.5 7.2-5.3 4.8-8.5 10.4-8.5 14.7 0.2 10 7.1 21.6 7.9 22.8z" fill="#9E4356" p-id="3189"></path><path d="M233.4 163.9s20.5-35.1 15.9-71.7l27.4 33.8s8.5 46.5-9.5 80.8l-33.8-42.9z" fill="#EB6B6A" p-id="3190"></path><path d="M267.5 209.3L231.7 164l0.5-0.8c0.2-0.3 20.2-35.2 15.7-70.9l-0.6-4.9 30.8 37.9 0.1 0.4c0.1 0.5 8.4 47.4-9.7 81.7l-1 1.9z m-32.4-45.5l31.9 40.4c15.5-31.7 9.2-73.3 8.5-77.6l-24.3-29.9c2.2 31.8-13.2 61.7-16.1 67.1z" fill="#9E4356" p-id="3191"></path><path d="M308 258.2s20.5-35.1 15.9-71.7l27.4 33.8s8.5 46.5-9.5 80.8L308 258.2z" fill="#EB6B6A" p-id="3192"></path><path d="M342 303.7l-35.7-45.3 0.5-0.8c0.2-0.3 20.2-35.2 15.7-70.9l-0.6-4.9 30.8 37.9 0.1 0.4c0.1 0.5 8.4 47.4-9.7 81.7l-1.1 1.9z m-32.3-45.6l31.9 40.4c15.5-31.7 9.2-73.4 8.5-77.6L325.7 191c2.3 31.8-13.1 61.8-16 67.1z" fill="#9E4356" p-id="3193"></path><path d="M377 377.3L134.6 188.9s-11.1-10.5-14-21.6c-2.9-11.1 10-29.5 21.3-30.9 11.3-1.4 16.4-0.4 25.8 3.9L321.9 259 377 377.3z" fill="#FCF2F3" p-id="3194"></path><path d="M384.5 386.7L132.7 190.9c-0.5-0.5-11.7-11.2-14.8-22.9-1.5-5.8 0.5-13.6 5.4-20.9 5.1-7.5 12.1-12.7 18.2-13.5 12.2-1.5 17.7-0.3 27.3 4.1l0.3 0.1 0.3 0.2 154.8 119.1 0.3 0.6 60 129z m-248-200l233.1 181.2-49.9-107.2-153.4-118c-8.5-3.9-13.2-4.9-24-3.5-4.5 0.6-10.1 4.9-14.2 11-4 5.9-5.7 12.2-4.6 16.4 2.4 9.6 11.9 19.1 13 20.1z" fill="#9E4356" p-id="3195"></path><path d="M150.2 200.3s8.6-55.2-12.4-62.3c0 0 15.7-4.8 33 5.2 0 0 16.7 39.8 5.4 76.3l-26-19.2z" fill="#EB6B6A" p-id="3196"></path><path d="M176.9 221.8l-28.3-20.9 0.1-0.8c0-0.1 2.1-13.9 1.7-28.3-0.4-12.9-3-29.1-13.2-32.5l-4.2-1.4 4.2-1.3c0.7-0.2 16.5-4.8 34.1 5.3l0.4 0.2 0.2 0.4c0.2 0.4 16.8 40.7 5.5 77.2l-0.5 2.1z m-25.2-22.1l23.7 17.5c9.3-33-4.1-68.6-5.8-73-11.4-6.4-22.1-6.3-27.6-5.6 16.1 11.4 10.7 54.2 9.7 61.1z" fill="#9E4356" p-id="3197"></path><path d="M223.7 257s11.4-39.1-2-73.5l34.8 26.1s19.5 43.1 10.3 80.7L223.7 257z" fill="#EB6B6A" p-id="3198"></path><path d="M267.7 292.8l-45.6-35.3 0.3-0.9c0.1-0.4 11.1-39-1.9-72.5l-1.8-4.6 39 29.3 0.1 0.3c0.2 0.4 19.6 44 10.4 81.6l-0.5 2.1z m-42.4-36.3L266 288c7.4-34.5-8.9-73.4-10.6-77.3l-30.8-23.1c9.9 30.2 2.2 63 0.7 68.9z" fill="#9E4356" p-id="3199"></path><path d="M409.2 150.1c-8-23-29.9-39.5-55.6-39.5-32.5 0-58.8 26.3-58.8 58.8 0 29.4 21.6 53.8 49.7 58.1" fill="#EE8889" p-id="3200"></path><path d="M344.5 230.4h-0.4c-14.4-2.2-27.6-9.6-37.1-20.6-9.7-11.2-15-25.5-15-40.3 0-34 27.7-61.7 61.7-61.7 26.2 0 49.7 16.6 58.3 41.4 0.5 1.5-0.3 3.1-1.7 3.6-1.5 0.5-3.1-0.3-3.6-1.7-7.8-22.5-29.1-37.6-52.9-37.6-30.9 0-56 25.1-56 56 0 13.5 4.8 26.5 13.6 36.6 8.7 10.1 20.7 16.7 33.7 18.7 1.5 0.2 2.6 1.7 2.4 3.2-0.4 1.4-1.6 2.4-3 2.4z" fill="#994153" p-id="3201"></path><path d="M672.7 168c12.6-10.6 20.6-26.5 20.6-44.3 0-32-26-58-58-58-29.5 0-53.9 22-57.5 50.6" fill="#EE8889" p-id="3202"></path><path d="M672.7 170.8c-0.8 0-1.6-0.3-2.2-1-1-1.2-0.9-3 0.3-4 12.4-10.5 19.6-25.9 19.6-42.2 0-30.4-24.8-55.2-55.2-55.2-27.7 0-51.2 20.7-54.7 48.1-0.2 1.5-1.6 2.6-3.1 2.4-1.5-0.2-2.6-1.6-2.4-3.1 3.9-30.2 29.8-53 60.3-53 33.5 0 60.8 27.3 60.8 60.8 0 17.9-7.9 34.9-21.6 46.5-0.6 0.5-1.2 0.7-1.8 0.7z" fill="#994153" p-id="3203"></path><path d="M175.8 91.1s21.8-51.5 3-63.4c0 0 16.4-0.8 30.8 13 0 0 6.6 42.7-13.2 75.3l-20.6-24.9z" fill="#EB6B6A" p-id="3204"></path><path d="M196.5 118.4l-22.4-27.1 0.3-0.8c0.1-0.1 5.4-12.9 8.5-27 2.7-12.7 4.1-28.9-4.9-34.7l-3.7-2.4 4.4-0.2c0.7 0 17.2-0.7 31.8 13.4l0.3 0.3 0.1 0.5c0.1 0.4 6.4 43.6-13.4 76.2l-1 1.8z m-19.1-27.6l18.8 22.7c17-29.8 12.7-67.6 12.1-72.2-9.5-9-19.9-11.4-25.4-12.1 12.8 15-2.9 55.3-5.5 61.6z" fill="#9E4356" p-id="3205"></path><path d="M318.9 330.5s11.4-39.1-2-73.5l34.8 26.1s19.5 43.1 10.3 80.7l-43.1-33.3z" fill="#EB6B6A" p-id="3206"></path><path d="M362.9 366.3L317.3 331l0.3-0.9c0.1-0.4 11.1-39-1.9-72.5l-1.8-4.6 39 29.3 0.1 0.3c0.2 0.4 19.6 44 10.4 81.6l-0.5 2.1z m-42.4-36.4l40.7 31.5c7.4-34.5-8.9-73.4-10.6-77.3L319.8 261c9.9 30.3 2.2 63 0.7 68.9z" fill="#9E4356" p-id="3207"></path><path d="M818.6 338.3s18.6 67.6-50.4 74.3c0 0-6.6 165.8-153.8 78.2 0 0-79.6 128.6-176.4 14.6 0 0-112.7 96.8-141.9-34.5 0 0-25.9 3.9-37.2-21.4l32.8-30 502.7-84.3 24.2 3.1z" fill="#EFACA6" p-id="3208"></path><path d="M131.8 169.4c-2.5 0-4.3-2.2-4.2-4.6 0.3-4.3 3-13.4 10.9-18 5.4-3.2 9.1-3.9 11.4-3.7 2 0.1 3.6 1.7 3.8 3.7 0.4 4.1-1.2 12.5-16.5 21.1-0.9 0.5-1.9 0.9-2.9 1.1-0.9 0.2-1.8 0.4-2.5 0.4z" fill="#EB6B6A" p-id="3209"></path><path d="M131.8 170.8c-1.6 0-3-0.6-4.1-1.8-1.1-1.2-1.6-2.7-1.5-4.3 0.3-4.4 3.1-14.1 11.6-19.1 4.7-2.8 8.9-4.1 12.2-3.9 2.7 0.2 4.8 2.3 5.1 5 0.4 4.5-1.3 13.5-17.2 22.5-1 0.6-2.1 1-3.3 1.3-1.1 0.1-2.1 0.3-2.8 0.3z m17.4-26.4c-2 0-5.2 0.7-10 3.5-7 4.1-9.9 12.4-10.2 16.9-0.1 0.8 0.2 1.6 0.8 2.2 0.5 0.6 1.2 0.9 2 0.9 0.4 0 1 0 2.1-0.3 0.9-0.2 1.8-0.5 2.5-1 14.6-8.2 16.2-15.9 15.8-19.8-0.1-1.3-1.2-2.4-2.5-2.4h-0.5z" fill="#9E4356" p-id="3210"></path><path d="M166.6 61.8c-2.5 0.1-4.4-2-4.3-4.5 0.1-4.3 2.6-13.5 10.3-18.3 5.3-3.4 9-4.1 11.3-4 2 0.1 3.6 1.6 3.9 3.6 0.5 4.1-0.8 12.5-15.9 21.6-0.9 0.5-1.9 0.9-2.9 1.2-0.8 0.2-1.7 0.4-2.4 0.4z" fill="#EB6B6A" p-id="3211"></path><path d="M166.5 63.2c-1.5 0-2.9-0.6-4-1.7s-1.7-2.7-1.7-4.3c0.1-4.4 2.6-14.2 11-19.5 4.7-3 8.7-4.4 12.1-4.3 2.7 0.1 4.9 2.2 5.2 4.8 0.6 4.5-0.9 13.5-16.5 23-1 0.6-2.1 1.1-3.3 1.4-1.1 0.3-2 0.4-2.8 0.5 0.1 0.1 0 0.1 0 0.1z m17-26.9c-2 0-5.2 0.7-10.2 3.8-6.8 4.3-9.5 12.7-9.7 17.2 0 0.8 0.3 1.6 0.9 2.2 0.5 0.6 1.3 0.9 2 0.8 0.3 0 1-0.1 2.1-0.4 0.9-0.2 1.8-0.6 2.5-1.1 14.3-8.6 15.7-16.4 15.2-20.3-0.2-1.3-1.3-2.3-2.5-2.4-0.1 0.2-0.2 0.2-0.3 0.2z" fill="#9E4356" p-id="3212"></path><path d="M264.1 391.2c-14.1 44 45.1 56 45.1 56 2.4 26.4 17.1 49.2 39 58.1 26.5 10.8 52.4-2.9 61.3-7.8 15.9-8.4 25.7-20 30.9-27.3 0 0 13.1 46.1 74.1 50 61.2 4.1 87.3-61 87.3-61 27.7 27.8 80.1 19.3 80.1 19.3 65-5.3 65-86.4 65-86.4 93.9-11.7 61.8-81.1 61.8-81.1-30.9-48-73.5-13.9-73.5-13.9-10.1-104.4-98.1-186-205.1-186-113.9 0-206.1 92.2-206.1 206.1 0 18.1 2.4 35.7 6.8 52.4-0.2 0.1-52.7-22.6-66.7 21.6z" fill="#FCF2F3" p-id="3213"></path><path d="M438.1 311.8a44.1 55.9 0 1 0 88.2 0 44.1 55.9 0 1 0-88.2 0Z" fill="#D03351" p-id="3214"></path><path d="M466 334.8l21.2-5.4 16.6 14.4 1.4-21.9 18.8-11.3-20.4-8.1-4.9-21.4-14 16.9-21.9-2 11.8 18.6z" fill="#FBD685" p-id="3215"></path><path d="M596.2 304.6a37.4 52.6 0 1 0 74.8 0 37.4 52.6 0 1 0-74.8 0Z" fill="#D03351" p-id="3216"></path><path d="M614.7 324.7l17.4-5 13.6 13.1 1.1-19.9 15.4-10.2-16.7-7.4-4-19.4-11.5 15.3-17.9-1.7 9.6 16.8z" fill="#FBD685" p-id="3217"></path><path d="M647.1 86.5m-9.2 0a9.2 9.2 0 1 0 18.4 0 9.2 9.2 0 1 0-18.4 0Z" fill="#F8CECC" p-id="3218"></path><path d="M359.1 134.9m-9.2 0a9.2 9.2 0 1 0 18.4 0 9.2 9.2 0 1 0-18.4 0Z" fill="#F8CECC" p-id="3219"></path><path d="M408.6 642.3c-8.8 0-18.4-0.9-28.9-3.1-0.1 0-0.2-0.1-0.3-0.1-0.7-0.2-17.4-6-34.8-18.3-21.8-15.4-34.8-34-37.8-54.2-4.5 2-12.8 4.9-22.7 5.2-25.1 0.7-40.7-16-49.4-30-12.1-19.6-16.1-38.2-11.8-55.2 5.3-20.9 22.6-39.4 52.8-56.8 1.3-0.8 3.1-0.3 3.8 1 0.8 1.3 0.3 3.1-1 3.8-28.9 16.6-45.3 34-50.2 53.3-4 15.7-0.3 32.3 11.1 50.9 11.5 18.6 26.4 27.8 44.5 27.3 13.5-0.4 23.7-6.2 23.8-6.3 0.8-0.5 1.9-0.5 2.7-0.1 0.9 0.5 1.4 1.3 1.5 2.3 3.7 47.5 65.4 70.3 69 71.6 37.2 7.6 67.4 0.8 89.9-20.2 16.8-15.7 22.7-33.8 22.8-34 0.4-1.3 1.6-2.1 3-1.9 1.3 0.1 2.4 1.2 2.5 2.5 0 0.1 1.6 12.5 13.3 25.3 15.6 16.9 41.9 26.7 76.1 28.3 34.6 1.6 61.6-11.7 80.3-39.6 14.1-21 17.9-42.9 17.9-43.1 0.2-1.1 1.1-2.1 2.2-2.3 1.1-0.2 2.3 0.2 2.9 1.2 11 16.9 28.6 24.6 52.4 22.9 17.4-1.2 32-7.4 33.2-7.9 28.9-15.3 44-37.4 45-65.9 0.7-21.4-7.2-38.3-7.2-38.5-0.4-0.9-0.3-1.9 0.2-2.7 0.5-0.8 1.4-1.3 2.3-1.3 25.9-0.6 44.8-8.1 56.1-22.1 16.5-20.4 11.3-48.4 11.3-48.6-3.5-19-11.7-32.9-24.2-41.1-20.2-13.3-45.2-7.8-45.5-7.7-1.5 0.3-3-0.6-3.4-2.1-0.3-1.5 0.6-3 2.1-3.4 1.1-0.3 27.6-6.1 49.8 8.5 13.9 9.1 22.9 24.2 26.7 44.8 0.2 1.2 5.7 30.7-12.4 53.2-11.8 14.7-30.7 22.8-56.3 24.1 2.4 6.5 6.8 20.5 6.2 37.2-0.7 21.1-9.6 50.5-48.1 70.7-0.1 0-0.1 0.1-0.2 0.1-0.6 0.3-15.9 7-35 8.4-23.2 1.7-41.6-5.3-53.9-20.3-2.1 8.3-7.1 23.7-17.3 38.9-13.1 19.6-37.4 42.4-79.7 42.4-1.8 0-3.7 0-5.6-0.1-25.1-1.2-59.4-7.4-80.3-30.5-6.6-7.3-10.3-14.5-12.2-19.8-3.5 7.2-10.1 18.3-21 28.6-12.9 12.1-34.1 24.7-66.2 24.7z" fill="#9E4356" p-id="3220"></path><path d="M563.9 436.7c-14.6 0-26.4-12.7-26.4-28.4 0-15.6 11.8-28.4 26.4-28.4s26.4 12.7 26.4 28.4-11.8 28.4-26.4 28.4z m0-51.1c-11.5 0-20.8 10.2-20.8 22.7s9.3 22.7 20.8 22.7 20.8-10.2 20.8-22.7-9.4-22.7-20.8-22.7z" fill="#994153" p-id="3221"></path><path d="M450.2 138.9c22.9-2.7-109.8 96.8-70.9 238.9-0.1 0-121.1-111.4 70.9-238.9z" fill="#EFC6D2" p-id="3222"></path><path d="M563.9 436.7c-14.6 0-26.4-12.7-26.4-28.4 0-15.6 11.8-28.4 26.4-28.4s26.4 12.7 26.4 28.4-11.8 28.4-26.4 28.4z m0-51.1c-11.5 0-20.8 10.2-20.8 22.7s9.3 22.7 20.8 22.7 20.8-10.2 20.8-22.7-9.4-22.7-20.8-22.7z" fill="#994153" p-id="3223"></path><path d="M487.7 370.7c-30.2 0-54.8-30-54.8-66.9s24.6-66.9 54.8-66.9 54.8 30 54.8 66.9-24.6 66.9-54.8 66.9z m0-128.2c-27.1 0-49.2 27.5-49.2 61.3s22.1 61.3 49.2 61.3 49.2-27.5 49.2-61.3-22.1-61.3-49.2-61.3z" fill="#994153" p-id="3224"></path><path d="M638.2 360.1c-25.9 0-46.9-28.3-46.9-63s21-63 46.9-63 46.9 28.3 46.9 63-21 63-46.9 63z m0-120.4c-22.8 0-41.3 25.7-41.3 57.4s18.5 57.4 41.3 57.4c22.8 0 41.3-25.7 41.3-57.4s-18.5-57.4-41.3-57.4z" fill="#994153" p-id="3225"></path></svg>